<svg id="Слой_1" data-name="Слой 1" xmlns="http://www.w3.org/2000/svg" viewBox="0 0 34.08 34.83"><defs><style>.cls-1{fill:#fff}</style></defs><title>g</title><path class="cls-1" d="M49.17 81.34a15.56 15.56 0 0 0-1.67 1 3.63 3.63 0 0 1-2.45.48h-.8c.49.58 1 1.12 1.43 1.7a7.16 7.16 0 0 1-1.05 9.37 11.37 11.37 0 0 0-1.41 1.37c-1.09 1.35-1 2.36.35 3.52.78.68 1.61 1.31 2.36 2a7 7 0 0 1 2.26 3.37 7.08 7.08 0 0 1-2.2 7.19 10.58 10.58 0 0 1-5.84 2.66 15.91 15.91 0 0 1-6.9-.28 7.21 7.21 0 0 1-4.32-3.11 5 5 0 0 1-.09-5.11 6.53 6.53 0 0 1 2.93-2.92 15.16 15.16 0 0 1 6.3-1.74l1.64-.13c-1.07-1.38-1.65-2.81-.81-4.51h-1a6.95 6.95 0 0 1-6.25-11 8.83 8.83 0 0 1 6.72-3.93 29.75 29.75 0 0 1 3-.16h7.82zm-9.81 31.08a10.06 10.06 0 0 0 3.41-.62 4.26 4.26 0 0 0 1.43-7.15c-.95-.88-2-1.63-3-2.43a1 1 0 0 0-.55-.19 12.58 12.58 0 0 0-6.31 1.25 4.17 4.17 0 0 0-2.34 2.93 4.49 4.49 0 0 0 2.19 4.85 9.64 9.64 0 0 0 5.17 1.36zm3.92-21.61a12 12 0 0 0-1.77-5.93 4 4 0 0 0-3.87-2.14 3.92 3.92 0 0 0-3.52 3.83 9.43 9.43 0 0 0 .79 4.51 7.51 7.51 0 0 0 2.51 3.31c1.72 1.24 4.71.61 5.4-1.39a16.86 16.86 0 0 0 .46-2.19zM53.68 82.16a46.65 46.65 0 0 1 .24 9.89c-.16 1.92 2.84 1.91 3 0a46.65 46.65 0 0 0-.24-9.89c-.25-1.89-3.25-1.91-3 0z" transform="translate(-28.19 -79.47)"/><path class="cls-1" d="M50.41 88.13c3.62 0 7.18.31 10.78-.23 1.9-.28 1.09-3.17-.8-2.89-3.3.49-6.66.08-10 .12a1.5 1.5 0 0 0 0 3zM34.68 82.59c-3.45 2.46-2.7 6.45-1.2 9.88A6.66 6.66 0 0 0 42.63 96c4.09-1.94 2.83-6.55 1.94-10.09-1-4.22-4-5.18-8-4.57-1.9.29-1.09 3.18.8 2.89 2.27-.35 3.7.1 4.32 2.47.39 1.51 1.55 5.2 0 6.39-4.18 3.3-8.91-5.53-5.53-7.94 1.56-1.11.06-3.72-1.51-2.59z" transform="translate(-28.19 -79.47)"/><path class="cls-1" d="M48.31 79.94c-1.1 1.21-2.77 1.16-4.29 1.16a1.5 1.5 0 0 0 0 3c2.32 0 4.75-.22 6.41-2 1.3-1.42-.82-3.55-2.12-2.12zM40.8 100.42c-3.61-.36-7.91 1.58-9.11 5.13-1.37 4.1.33 6.73 4.5 7.42 3.84.64 8.61.74 10.77-3.18 1.82-3.32-.39-7-3.56-8.48-1.74-.8-3.27 1.79-1.51 2.59s3.72 2.95 2.1 5-4.78 1.58-7 1.22c-1.26-.2-1.65-.12-2.29-1.32a2.56 2.56 0 0 1 0-2.79c1-1.9 4.13-2.74 6.07-2.54s1.91-2.81 0-3z" transform="translate(-28.19 -79.47)"/></svg>