<svg id="Слой_1" data-name="Слой 1" xmlns="http://www.w3.org/2000/svg" viewBox="0 0 34.49 31.44"><defs><style>.cls-1{fill:#fff}</style></defs><title>ins</title><path class="cls-1" d="M95.5 97.09a7.87 7.87 0 0 0-6.5-3.81 1.11 1.11 0 0 1-1-.62 5.51 5.51 0 0 0-3 .67c-4 2.47-1.56 8.86 1.41 11a6.44 6.44 0 0 0 9.6-2.86 5 5 0 0 0 0-3.4 1.27 1.27 0 0 1-.51-.98z" transform="translate(-71.7 -81.93)"/><path class="cls-1" d="M105 85.29a4.58 4.58 0 0 0-2-2.52 5.52 5.52 0 0 0-2.21-.37l-17.18-.47a44.06 44.06 0 0 0-9 .77 3.65 3.65 0 0 0-1.64.73 3.4 3.4 0 0 0-.85 1.9c-1.23 6.38 1.26 12.94.69 19.42a10.72 10.72 0 0 0 0 3.54c.83 3.31 5 4.33 8.39 4.6a145.46 145.46 0 0 0 17.21.37c2.75-.1 6-.63 7.17-3.13.69-1.5.34-3.24.18-4.89-.76-6.68 1.85-13.76-.76-19.95zm-7.05 17.51a8.92 8.92 0 0 1-14.06 2.72c-4.17-3.77-5.42-13.1 1.34-15a11 11 0 0 1 9.06 1.7l.65.5A4.85 4.85 0 0 1 96.53 94 3.67 3.67 0 0 1 98 96.8a7.74 7.74 0 0 1-.05 6zm3-13.36a2.54 2.54 0 0 1-1.34 1.29 3 3 0 0 1-1.44.47 2.26 2.26 0 0 1-2-2c-.17-1 1.21-1 1.5-2l-.85.16a5.4 5.4 0 0 1 2.76-.1 1.86 1.86 0 0 1 1.42 2.18z" transform="translate(-71.7 -81.93)"/></svg>