<svg id="Слой_1" data-name="Слой 1" xmlns="http://www.w3.org/2000/svg" viewBox="0 0 33.73 26"><defs><style>.cls-1{fill:#fff}</style></defs><title>tw</title><path class="cls-1" d="M-13.42 86.07a22.58 22.58 0 0 0 12.1 5.52 1.23 1.23 0 0 0 .9-.12 1.38 1.38 0 0 0 .42-.92 7.43 7.43 0 0 1 8.67-5.73c1 .23 1.9.66 2.89.8a2.76 2.76 0 0 0 2.69-.92l-1.09 2.7 2.74.6c-2.41 1.89-3.27 5.11-3.73 8.13s-.7 6.21-2.32 8.8c-2.75 4.38-8.55 5.65-13.72 5.67-4.86 0-9.89-.8-14-3.47l8.87-1.62a6.93 6.93 0 0 0-4.74-3.95 6.63 6.63 0 0 1 3.07-1.11 11.35 11.35 0 0 1-4.91-5.31 5.4 5.4 0 0 1 4.71.71 7.48 7.48 0 0 1-3-8.14" transform="translate(17.82 -84.65)"/></svg>