<?xml version="1.0" standalone="no"?>
<!DOCTYPE svg PUBLIC "-//W3C//DTD SVG 20010904//EN"
 "http://www.w3.org/TR/2001/REC-SVG-20010904/DTD/svg10.dtd">
<svg version="1.0" xmlns="http://www.w3.org/2000/svg"
 width="16.000000pt" height="16.000000pt" viewBox="0 0 16.000000 16.000000"
 preserveAspectRatio="xMidYMid meet">
<metadata>
Created by potrace 1.11, written by Peter Selinger 2001-2013
</metadata>
<g transform="translate(0.000000,16.000000) scale(0.006154,-0.006154)"
fill="#000000" stroke="none">
<path d="M1699 2526 c-2 -2 -20 -7 -40 -10 -61 -9 -200 -57 -272 -92 -220
-108 -425 -315 -517 -519 -74 -166 -96 -355 -55 -472 2 -8 35 17 79 58 166
159 337 261 525 313 160 45 296 123 481 276 100 83 320 300 320 317 0 16 -120
82 -190 104 -48 16 -99 22 -196 25 -72 2 -132 2 -135 0z"/>
<path d="M2174 2156 c-260 -265 -469 -405 -703 -471 -194 -54 -339 -145 -526
-327 l-70 -69 57 -54 c222 -208 634 -196 972 29 319 212 501 547 465 851 -8
62 -45 175 -57 175 -4 -1 -66 -61 -138 -134z"/>
<path d="M455 1160 c-67 -14 -191 -79 -175 -93 3 -2 46 -30 95 -62 239 -154
396 -310 475 -472 58 -120 163 -234 309 -338 75 -52 81 -50 117 32 114 256
-31 613 -330 815 -154 105 -337 149 -491 118z"/>
<path d="M1925 1073 c-177 -72 -307 -297 -299 -519 2 -61 22 -142 45 -186 17
-33 71 -100 76 -95 2 3 13 41 23 86 22 93 54 159 116 247 62 86 112 208 130
311 3 15 7 35 9 43 3 8 7 37 10 64 4 28 8 53 11 58 9 14 -80 8 -121 -9z"/>
<path d="M2106 1058 c-2 -13 -14 -75 -26 -138 -24 -125 -63 -230 -113 -305
-79 -116 -99 -155 -122 -230 -14 -44 -26 -96 -27 -115 l-3 -35 70 0 c58 0 80
5 128 30 106 53 196 172 243 320 27 86 25 250 -4 325 -24 60 -66 118 -112 150
l-29 21 -5 -23z"/>
<path d="M194 927 c-28 -93 -25 -229 9 -332 131 -399 592 -667 909 -529 l37
17 -70 49 c-135 95 -248 222 -304 343 -62 134 -217 289 -430 432 -141 94 -129
92 -151 20z"/>
</g>
</svg>
