<svg id="Слой_1" data-name="Слой 1" xmlns="http://www.w3.org/2000/svg" viewBox="0 0 18.88 35.88"><defs><style>.cls-1{fill:#fff}</style></defs><title>fb</title><path class="cls-1" d="M-87.6 80.23l.28 5.67a7 7 0 0 0-8.75 4.64 2.76 2.76 0 0 0 .69 3 2.84 2.84 0 0 0 1.41.41 8.84 8.84 0 0 0 3.46-.41 1.67 1.67 0 0 1 1.54 0 1.44 1.44 0 0 1 .41 1 16.89 16.89 0 0 1 .12 3.46c0 .6-.31 1.37-.91 1.34a2.22 2.22 0 0 1-.85-.34 1.87 1.87 0 0 0-2.28.8 5.43 5.43 0 0 0-.66 2.54l-1.08 12a1.38 1.38 0 0 1-.41 1 1.37 1.37 0 0 1-.8.18h-3.4a1.89 1.89 0 0 1-1-.19 1.82 1.82 0 0 1-.65-1.17 20.35 20.35 0 0 1 .18-10.23 2.67 2.67 0 0 0 0-2.08c-.76-1.25-2.73-.34-4.12-.78-1.85-.58-1.94-3.14-1.66-5.07a2.31 2.31 0 0 1 .88-1.81c.9-.49 2.26.29 2.93-.49a1.67 1.67 0 0 0 .31-1c.17-2.66-.54-5.58.91-7.81a9.21 9.21 0 0 1 3.49-2.73c2.77-1.52 5.9-3.09 9-2.31" transform="translate(106.2 -79.71)"/></svg>